<svg width="43" height="45" viewBox="0 0 43 45" fill="none" xmlns="http://www.w3.org/2000/svg">
<g filter="url(#filter0_d_2_205)">
<rect y="0.42041" width="40" height="40" rx="20" fill="#85FFB2"/>
<rect x="0.416667" y="0.837077" width="39.1667" height="39.1667" rx="19.5833" stroke="#133834" stroke-width="0.833333"/>
<path d="M29.2969 30.4204L27.0802 28.4665L25.8308 27.3049L24.5097 26.0783L25.0525 27.9877H13.3635C12.1929 27.9835 11.247 27.0318 11.25 25.8612V11.9198C11.2482 10.75 12.1938 9.7996 13.3635 9.79541H27.1833C28.3531 9.7996 29.2987 10.75 29.2969 11.9198V30.4204ZM24.3849 21.2021C23.9272 21.816 23.2682 22.2494 22.5232 22.4266C22.8293 22.8174 23.1984 23.2592 23.2016 23.2635C24.4468 23.2898 25.6259 22.7042 26.3573 21.696C26.3198 19.6061 25.8122 17.5514 24.8723 15.6844C24.0447 15.035 23.0373 14.656 21.9869 14.5989H21.975L21.8306 14.7639C22.7688 15.0159 23.6438 15.4619 24.399 16.073C23.4381 15.5448 22.3837 15.2085 21.2944 15.083C20.602 15.0061 19.9031 15.013 19.2123 15.1036C19.1635 15.1046 19.1149 15.1097 19.0669 15.1188H19.0365C18.2271 15.212 17.4373 15.4318 16.6961 15.7701C16.3248 15.9406 16.0969 16.0643 16.0871 16.0687C16.0773 16.073 16.0871 16.0687 16.0871 16.0611C16.8881 15.4311 17.8122 14.9759 18.7998 14.7248L18.6913 14.601H18.6848C17.6344 14.6583 16.6271 15.0373 15.7994 15.6866C14.856 17.5523 14.3483 19.6078 14.3144 21.6982C15.0367 22.7131 16.2174 23.301 17.4625 23.2657C17.4625 23.2657 17.8511 22.7924 18.154 22.4092C17.4277 22.2267 16.7878 21.7968 16.3444 21.1934C16.352 21.1989 16.4594 21.2716 16.6331 21.3671C16.6448 21.3808 16.6592 21.392 16.6755 21.3997C16.6892 21.4092 16.7037 21.4176 16.7189 21.4247C16.7361 21.4325 16.7524 21.4419 16.7677 21.4529C17.0099 21.5864 17.2613 21.7024 17.52 21.8002C18.0118 21.995 18.5206 22.1439 19.0397 22.2453C19.4944 22.331 19.9558 22.3746 20.4184 22.3756C20.852 22.3756 21.2848 22.3355 21.7112 22.2562C22.2248 22.166 22.7263 22.0174 23.206 21.8133C23.6204 21.6539 24.0158 21.4489 24.3849 21.2021ZM22.1726 20.7386C21.7002 20.7797 21.2512 20.5268 21.0416 20.1016C20.832 19.6764 20.9049 19.1661 21.2252 18.8166C21.5456 18.4671 22.0476 18.3501 22.4894 18.522C22.9312 18.6938 23.2223 19.1193 23.2223 19.5934C23.2461 20.199 22.777 20.7105 22.1715 20.7386H22.1726ZM18.408 20.7386C17.814 20.6868 17.3582 20.1895 17.3582 19.5934C17.3582 18.9972 17.814 18.4999 18.408 18.4481C18.6816 18.449 18.9431 18.5606 19.1331 18.7575C19.3487 18.9812 19.4659 19.2817 19.4587 19.5923C19.4839 20.199 19.0135 20.7116 18.4069 20.7386H18.408Z" fill="black"/>
</g>
<defs>
<filter id="filter0_d_2_205" x="0" y="0.42041" width="43" height="44" filterUnits="userSpaceOnUse" color-interpolation-filters="sRGB">
<feFlood flood-opacity="0" result="BackgroundImageFix"/>
<feColorMatrix in="SourceAlpha" type="matrix" values="0 0 0 0 0 0 0 0 0 0 0 0 0 0 0 0 0 0 127 0" result="hardAlpha"/>
<feOffset dx="3" dy="4"/>
<feComposite in2="hardAlpha" operator="out"/>
<feColorMatrix type="matrix" values="0 0 0 0 0.0555986 0 0 0 0 0.149942 0 0 0 0 0.140011 0 0 0 1 0"/>
<feBlend mode="normal" in2="BackgroundImageFix" result="effect1_dropShadow_2_205"/>
<feBlend mode="normal" in="SourceGraphic" in2="effect1_dropShadow_2_205" result="shape"/>
</filter>
</defs>
</svg>
