<svg width="43" height="45" viewBox="0 0 43 45" fill="none" xmlns="http://www.w3.org/2000/svg">
<g filter="url(#filter0_d_2_203)">
<rect y="0.42041" width="40" height="40" rx="20" fill="#85FFB2"/>
<rect x="0.5" y="0.92041" width="39" height="39" rx="19.5" stroke="#133834"/>
<path d="M19.6879 30.4201C15.5165 30.4255 11.7538 27.9142 10.1584 24.06C8.56294 20.2057 9.44994 15.7697 12.4048 12.8253C15.0051 10.2157 18.8012 9.19364 22.3602 10.145C25.9192 11.0963 28.699 13.8762 29.6504 17.4352C30.6018 20.9942 29.5797 24.7903 26.97 27.3906C25.0447 29.3323 22.4225 30.4233 19.6879 30.4201ZM18.1582 23.4755C20.0551 23.436 21.9248 23.931 23.5535 24.904C23.6539 24.9714 23.7721 25.0074 23.8931 25.0073C24.1134 25.0017 24.3162 24.8852 24.4319 24.6976C24.522 24.5237 24.5376 24.3207 24.4752 24.1351C24.4225 23.9938 24.3127 23.8814 24.1728 23.8254C22.339 22.7346 20.2357 22.1806 18.1025 22.2265C16.7789 22.2366 15.4605 22.3921 14.1709 22.69C13.8328 22.7801 13.6272 23.1223 13.7064 23.4631C13.7862 23.7382 14.0305 23.9333 14.3164 23.9503C14.3713 23.9501 14.4258 23.9421 14.4785 23.9266C15.6844 23.6396 16.9187 23.4883 18.1582 23.4755ZM17.9621 20.4037C20.2828 20.3763 22.5688 20.9682 24.5846 22.1182C24.6995 22.2017 24.8379 22.2465 24.98 22.2461C25.2581 22.2353 25.5143 22.0922 25.6695 21.8611C25.7906 21.6843 25.8284 21.4633 25.7727 21.2563C25.7349 21.0768 25.6223 20.9221 25.463 20.831C23.1836 19.5147 20.5931 18.8335 17.9611 18.8585C16.5736 18.85 15.1923 19.0447 13.8612 19.4365C13.4522 19.5711 13.2238 20.006 13.3451 20.4192C13.4464 20.7531 13.7615 20.9754 14.11 20.959C14.184 20.9597 14.2579 20.9511 14.3298 20.9332C15.5063 20.5716 16.7314 20.3931 17.9621 20.4037ZM18.1572 17.2163C20.8037 17.1399 23.4255 17.7441 25.7717 18.971C25.9298 19.0574 26.1075 19.1019 26.2877 19.1C26.6078 19.1067 26.9128 18.9645 27.1135 18.715C27.2383 18.4867 27.2708 18.2193 27.2043 17.9677C27.1422 17.7168 26.9794 17.5025 26.7543 17.3752C24.1086 15.969 21.1441 15.2707 18.1489 15.348C16.4904 15.331 14.8376 15.5442 13.2378 15.9818C12.7884 16.1208 12.5098 16.5692 12.5843 17.0337C12.6588 17.4981 13.0637 17.8369 13.534 17.8284C13.6256 17.8285 13.7167 17.8152 13.8044 17.7891C15.2199 17.3878 16.6861 17.1945 18.1572 17.2153V17.2163Z" fill="black"/>
</g>
<defs>
<filter id="filter0_d_2_203" x="0" y="0.42041" width="43" height="44" filterUnits="userSpaceOnUse" color-interpolation-filters="sRGB">
<feFlood flood-opacity="0" result="BackgroundImageFix"/>
<feColorMatrix in="SourceAlpha" type="matrix" values="0 0 0 0 0 0 0 0 0 0 0 0 0 0 0 0 0 0 127 0" result="hardAlpha"/>
<feOffset dx="3" dy="4"/>
<feComposite in2="hardAlpha" operator="out"/>
<feColorMatrix type="matrix" values="0 0 0 0 0.0555986 0 0 0 0 0.149942 0 0 0 0 0.140011 0 0 0 1 0"/>
<feBlend mode="normal" in2="BackgroundImageFix" result="effect1_dropShadow_2_203"/>
<feBlend mode="normal" in="SourceGraphic" in2="effect1_dropShadow_2_203" result="shape"/>
</filter>
</defs>
</svg>
